# xmcd
#
# Track frame offsets:
#	180
#	15761
#	29596
#	42587
#	56261
#	67339
#	82146
#	94328
#	109088
#	122791
#	137894
#	152588
#	166555
#	179194
#	192716
#	206143
#	217967
#	230540
#	244737
#	258528
#
# Disc length: 3612 seconds
#
# Revision: 1
# Processed by: cddbd v1.5.1PL0 Copyright (c) Steve Scherf et al.
# Submitted via: audiograbber 1.83.01
#
DISCID=2b0e1a14
DTITLE=Berthe Sylva - Collection d'or
DYEAR=1900
DGENRE=Oldies
TTITLE0=Les roses blanches (1937)
TTITLE1=Du gris (1931)
TTITLE2=Le racommodeur de faience et de porcelaine (1929)
TTITLE3=On n'a pas tous les jours vingt ans (1935)
TTITLE4=Adieu Paris (Adios Muchachos) (1929)
TTITLE5=La légende des flots blues (1931)
TTITLE6=Arrêter les aiguilles (1937)
TTITLE7=Les yeux de maman (1937)
TTITLE8=Frou-frou (1933)
TTITLE9=Le p'tit boscot (1935)
TTITLE10=Le tango des fauvettes (1931)
TTITLE11=Berceuse tendre (avec Fred Gouin) (1933)
TTITLE12=Maman (1936)
TTITLE13=Mon vieux pataud (1934)
TTITLE14=Si je pouvais n'avoir plus d'yeux (1935)
TTITLE15=Un soir a la havane (1933)
TTITLE16=Je n'ai qu'un amour, c'est toi (1934)
TTITLE17=Tout est permis quand on rêve (1931)
TTITLE18=Rendez-moi mon papa (1933)
TTITLE19=Les nuits (1937)
EXTD=
EXTT0=
EXTT1=
EXTT2=
EXTT3=
EXTT4=
EXTT5=
EXTT6=
EXTT7=
EXTT8=
EXTT9=
EXTT10=
EXTT11=
EXTT12=
EXTT13=
EXTT14=
EXTT15=
EXTT16=
EXTT17=
EXTT18=
EXTT19=
PLAYORDER=
